<svg xmlns="http://www.w3.org/2000/svg" class="c-hero__illustration" viewBox="0 0 381.5 245">
  <defs>
    <clipPath id="clip-path">
      <path d="M328.76 48.37h52.74v151.75h-52.74z" class="cls-1"/>
    </clipPath>
    <clipPath id="clip-path-2">
      <path d="M-493-256H881v10263H-493z" class="cls-1"/>
    </clipPath>
    <clipPath id="clip-path-3">
      <path d="M245.5 129.71c5.47.34 8.89-.23 10.83-4 1.59-3.19 1.14-6.5 1.14-9.81 0-8.66 3.42-12.76 7.52-15.27l-.34-.69c-6.84 2.28-8.89.35-12.88 2.06a10.29 10.29 0 0 0-6.16 9.91c0 3.31 1 5.82 1 10.15a25.75 25.75 0 0 1-1.11 7.65zm-1 30.78c-7.64 0-12.54-5-12.54-12.31 0-8.67 6.61-13.68 6.61-24.17 0-4.45-.79-6.84-.79-11.86 0-11.63 6.49-17.55 14.93-17.55 5.24 0 7.75 2.39 12.65 2.39a8.4 8.4 0 0 0 6.73-2.74l.57.69a31.73 31.73 0 0 0-7.3 21.2c0 4.9.8 10.72-3.3 14.94-3.88 4-11.06 4.78-17.79 2.28-1.14 4.9-4.33 7.75-4.33 12.88 0 3.76 2.05 6.84 7 6.84 7.63 0 7.75-7.87 14.93-11l.46.92c-4.63 2.44-4.63 17.49-17.86 17.49zM209 129.71c5.47.34 8.89-.23 10.83-4 1.59-3.19 1.14-6.5 1.14-9.81 0-8.66 3.42-12.76 7.52-15.27l-.34-.69c-6.84 2.28-8.89.35-12.88 2.06a10.29 10.29 0 0 0-6.16 9.91c0 3.31 1 5.82 1 10.15a25.75 25.75 0 0 1-1.11 7.65zm-1 30.78c-7.64 0-12.54-5-12.54-12.31 0-8.67 6.61-13.68 6.61-24.17 0-4.45-.79-6.84-.79-11.86 0-11.63 6.49-17.55 14.93-17.55 5.24 0 7.75 2.39 12.65 2.39a8.4 8.4 0 0 0 6.73-2.74l.57.69a31.73 31.73 0 0 0-7.3 21.2c0 4.9.8 10.72-3.3 14.94-3.88 4-11.06 4.78-17.79 2.28-1.14 4.9-4.33 7.75-4.33 12.88 0 3.76 2 6.84 7 6.84 7.63 0 7.75-7.87 14.93-11l.46.92c-4.61 2.44-4.61 17.49-17.83 17.49zm-64-.8l-.57-.68a24.27 24.27 0 0 0 8-12c5.93-17.22-4.68-29.64 8-43a25.79 25.79 0 0 0-10.83 2.73l-.57-.68c4.1-2.85 5.36-9.8 13.22-9.12 2.74-5 .46-9.46 1.6-15.39 1-5.36 4.44-9.92 10.94-9.92a11.51 11.51 0 0 1 9.35 4.9l-.68.8c-3.2-3.19-9.47-.91-11.06 5.13-1.37 5 1 11.06-3.19 14.94l.11.11c6.73-2.39 13.68 3.08 17.9-.91 3.87-3.65 1-9.92 2.05-15.85 1-5.36 4.33-9.8 10.83-9.8a15.06 15.06 0 0 1 10.26 4.22l-.57 1.14c-4-2.63-10.37-.69-12 5.35-1.37 5 .91 11.86-3.31 15.74l.12.11c5.47-1.94 8.43 1.71 14.82-.68l.57.68c-3 2-4.22 7.07-10.72 7.07-2.16 0-4.79-.57-6.61-.57 0 8.21-3.42 9.12-5.59 16.87-4.21 14.59 5.36 27.25-4.56 34.77-4.67 3.65-8.43 1.6-12.19 4l-.57-.68a24.34 24.34 0 0 0 8-12c2.85-8.21-1.71-15.62.68-25.08 1.82-7.3 6.27-9.58 7.64-18.7-1.83 1.37-2.62 2-6 2-2.51 0-4.56-1.25-7.07-1.25-4.9 0-8.32 2.85-9.81 9.12-2.85 12 3.31 31.35-3.42 39.78-5.77 7.31-10.97 4.46-14.77 6.85zm-22.23-6c6.61 0 8.89-7.3 9-14 .12-3.2-.11-6.27-.11-9 0-11.74 4.9-16.87 4.9-22.91 0-4.11-2.28-6.62-6.27-6.62-5.47 0-7.75 4.79-7.75 11.29 0 3.65.57 7.64.57 10.83 0 11.4-7.41 15.5-7.52 22.46.04 4.15 2.66 7.91 7.22 7.91zm-.23 7.07c-8.78 0-15.5-5.59-15.5-13.23 0-8.21 8-13 8.2-24.17 0-3.64-1-6.84-.91-10.83.16-9.61 5.29-18.53 16.67-18.53 8.55 0 13.22 5.13 13.22 12.31 0 7.75-5.36 14.48-5.36 24.39 0 3.42.69 6.84.69 10.61-.21 11.54-6.55 19.41-16.97 19.41zm-40.54.18c-10.26 0-16.88-7.06-16.88-16.07 0-10.72 9.69-18.47 9.69-31.35 0-5.13-1.48-9.23-1.48-14.93 0-12.2 6.73-24.06 21.55-24.06 11.06 0 16 6.5 16 13.91 0 9.12-9.35 13.79-10.15 22.34l-.8.12c-1.86-7.07 3.07-12.66 3.07-19.27 0-6.84-3.76-9.92-8.78-9.92-7.52 0-11.74 6.05-12.19 13.68-.35 5.93 1.36 12.54 1.36 18.24 0 13.11-9.23 19.61-9.23 29.87 0 5.47 3.65 9.35 9 9.35 5.7 0 9.57-3.65 11.74-8.09 2.28-4.68 2.39-10.95 8.66-13.34l.69.91c-5.13 3.88-2.63 12.54-6.39 19.61-3.1 5.81-9.59 9-15.86 9z" class="cls-1"/>
    </clipPath>
  </defs>
  <g class="c-hero__cupInner">
    <path d="M0 0h340v245H0z" class="cls-2"/>
  </g>
  <g id="handle" clip-path="url(#clip-path)">
    <path fill="none" stroke="#fff" stroke-miterlimit="10" stroke-width="22.8" d="M277.76 48.37H381.5v151.75H277.76z"/>
  </g>
  <path id="cupOuter" d="M339.5 245H.5V0h339zm-328-11.14h317V11.14h-317z" class="cls-2"/>
  <g clip-path="url(#clip-path-3)">
    <path d="M59.12 66h218.51v99.95H59.12z"/>
  </g>
</svg>